HIERARCHY
ROOT Spine
{
    OFFSET 0.0 0.0 -0.0
    CHANNELS 6 Xposition Yposition Zposition Zrotation Xrotation Yrotation
    JOINT ShoulderCenter
    {
        OFFSET 0.0 0.31030890345573425 0.0
        CHANNELS 3 Zrotation Xrotation Yrotation
        JOINT LeftShoulder
        {
            OFFSET 0.19471313059329987 0.0 0.0
            CHANNELS 3 Zrotation Xrotation Yrotation
            JOINT LeftElbow
            {
                OFFSET 0.2616344094276428 0.0 0.0
                CHANNELS 3 Zrotation Xrotation Yrotation
                JOINT LeftHand
                {
                    OFFSET 0.33171942830085754 0.0 0.0
                    CHANNELS 3 Zrotation Xrotation Yrotation
                    End Site
                    {
                        OFFSET 0.1326877772808075 0.0 0.0
                    }
                }
            }
        }
        JOINT RightShoulder
        {
            OFFSET -0.19471313059329987 0.0 0.0
            CHANNELS 3 Zrotation Xrotation Yrotation
            JOINT RightElbow
            {
                OFFSET -0.2616344094276428 0.0 0.0
                CHANNELS 3 Zrotation Xrotation Yrotation
                JOINT RightHand
                {
                    OFFSET -0.33171942830085754 0.0 0.0
                    CHANNELS 3 Zrotation Xrotation Yrotation
                    End Site
                    {
                        OFFSET -0.1326877772808075 0.0 0.0
                    }
                }
            }
        }
        End Site
        {
            OFFSET 0.0 0.12412355840206146 0.0
        }
    }
    JOINT LeftHip
    {
        OFFSET 0.16260118231916468 -0.16260118231916468 0.0
        CHANNELS 3 Zrotation Xrotation Yrotation
        JOINT LeftKnee
        {
            OFFSET 0.0 -0.4167487919330597 0.0
            CHANNELS 3 Zrotation Xrotation Yrotation
            JOINT LeftFoot
            {
                OFFSET 0.0 -0.4673203229904175 0.0
                CHANNELS 3 Zrotation Xrotation Yrotation
                End Site
                {
                    OFFSET 0.0 0.0 0.18692812323570251
                }
            }
        }
    }
    JOINT RightHip
    {
        OFFSET -0.16260118231916468 -0.16260118231916468 0.0
        CHANNELS 3 Zrotation Xrotation Yrotation
        JOINT RightKnee
        {
            OFFSET 0.0 -0.4167487919330597 0.0
            CHANNELS 3 Zrotation Xrotation Yrotation
            JOINT RightFoot
            {
                OFFSET 0.0 -0.4673203229904175 0.0
                CHANNELS 3 Zrotation Xrotation Yrotation
                End Site
                {
                    OFFSET 0.0 0.0 0.18692812323570251
                }
            }
        }
    }
}
MOTION
Frames: 5
Frame Time: 0.03333333333333333
-0.019999999552965164 0.1589999943971634 0.3409999907016754 -8.339019801205989 -1.6614568092020874 -1.0899880350318907 -6.647413055397402e-07 -1.1201541245882691e-07 0.4496672945770945 131.67329584331674 1.7070242696355276 -123.53870198346505 7.779648160822736e-07 4.8160349594351644e-06 144.82793744051608 -6.3611093629270335e-15 1.5902773407317582e-15 3.1805546814635168e-15 -103.24277089912619 22.636127520810206 -152.0343529140266 -2.7171859835406947e-06 -4.872303559672053e-07 -43.35201797287772 1.6648215910785596e-15 -1.4440025486785188e-32 -9.93923337957349e-16 12.677815247442252 -2.441268543802227 -16.593191499492352 1.291448074988399 11.279742279714736 -41.167496846403985 7.951386703658794e-16 1.5902773407317588e-15 2.882377680076313e-15 -16.10177233885744 2.9341433472071228 71.591932870371 -12.908863165753955 -4.3919740163946575 -126.08533338175737 1.5902773407317582e-15 7.951386703658791e-16 -1.1034765745125397e-32
-0.01899999938905239 0.1589999943971634 0.34299999475479126 -7.606868003343503 -2.218754907815493 -1.1016696263848984 6.628432164570732e-08 9.129393782082585e-08 0.16042289440441176 131.89977381842954 2.270742519819846 -122.73177544252144 1.6808590917527637e-06 1.004497690101669e-06 144.4132107237904 0.0 1.5902773407317588e-15 0.0 -103.1785254029148 22.79708119715582 -152.45864545718538 -5.456242418870694e-07 -2.15249379992236e-06 -43.283461570281865 -2.2114794269551017e-15 3.1805546814635176e-15 -1.391492673140289e-15 12.069288688148776 -1.762283200916027 -17.709866493215376 0.8711582722925869 11.087738042376117 -40.44328397522588 0.0 0.0 2.6338968455869747e-15 -16.794131418223788 3.306622722387025 71.18392086143831 -12.616118144395912 -4.489339537676012 -123.92349877028983 0.0 0.0 -7.95138670365879e-15
-0.01899999938905239 0.1589999943971634 0.3449999988079071 -7.239837008693217 -2.9596573775374906 -1.116442608216008 5.898810486169945e-07 -6.902859551040856e-09 0.0064364335812737965 132.23139267241206 2.8474926470910855 -122.2255371847959 2.297022682806156e-06 -1.3568963767769044e-06 144.30203017986827 0.0 -1.5902773407317584e-15 0.0 -102.75694151734643 23.118775096805855 -152.38679369324743 -4.1609998426536295e-07 -5.488015923273602e-07 -43.43084858559712 -7.404728867782248e-15 -4.969616689786763e-17 2.7829853462805768e-15 11.545965065779157 -0.9015484191195126 -17.852525871460287 1.0002178559973438 11.12317997002024 -39.91739913827506 0.0 0.0 -5.06900902358248e-15 -17.190670384753677 3.999095110826299 71.4288140454965 -12.831327728620685 -4.56751873452797 -125.3132956773442 1.5902773407317584e-15 6.620859447075238e-32 4.770832022195275e-15
-0.01899999938905239 0.15800000727176666 0.34700000286102295 -6.850109127267753 -3.6888435219900977 -0.8219218361332394 -5.372091634167613e-07 -3.556099388703698e-07 -0.6163209034818591 132.88118938705495 3.238487820083194 -122.21129387692 8.70487831313498e-07 2.6184930237857883e-08 144.27377715491363 6.361109362927033e-15 1.5902773407317582e-15 -8.827812596100317e-32 -102.43974865895864 23.035555997878934 -152.44038786097317 -5.151386957050245e-07 1.228825825955745e-06 -43.75418552397041 -3.876301018033661e-15 -9.939233379573501e-17 3.4787316828507214e-15 11.278760220190229 -0.24568357550332734 -17.492044579827887 0.8549646626312832 11.152350345029996 -39.931294645476534 -7.951386703658792e-16 1.0000256456519891e-32 -1.441188840038156e-15 -17.58416072614613 4.633660246458599 72.39340252586753 -12.753600289163588 -4.402266186820487 -127.25531948467408 0.0 0.0 -3.975693351829396e-16
-0.01899999938905239 0.15800000727176666 0.3479999899864197 -6.319706750836367 -4.258574301705102 -0.8054542384469395 -5.41025227100794e-07 4.2015663315122216e-08 -0.7874391249222646 132.95256302390453 3.5294613640876094 -121.90519421310407 -7.464477457236942e-07 -3.966193380823235e-06 144.31000574834562 0.0 0.0 3.1805546814635168e-15 -102.141827801524 23.658924413266913 -152.7309350144274 -1.7956628488831535e-06 9.913903833280716e-07 -43.966413238589354 -5.118705190480348e-15 -3.2799470152592518e-15 2.087239009710433e-15 10.603370211428961 0.4475981133444547 -18.581474397551148 0.7900135686541528 11.201101823527756 -38.876336889004584 -3.9311352967009226e-32 1.5902773407317582e-15 2.8326815131784443e-15 -18.008085363129037 5.032046459954534 72.11192237833953 -12.713137504462688 -4.48699577241842 -125.1533921539685 1.5902773407317584e-15 -5.517382872562698e-33 -3.975693351829396e-16
